<svg width="128" height="128" viewBox="0 0 128 128" fill="none" xmlns="http://www.w3.org/2000/svg">
<path d="M71.4214 50.9714L97.7326 8M61.2079 52.1494L27.8068 9.17804M58.5844 60.5633L8.16714 69.8459M65.423 67.8807L52.6113 119.69M75.2695 64.0621L120 89.9882M60.671 51.5143H72.233L74.8023 63.6L65.8097 67.6286L58.1017 60.9143L60.671 51.5143ZM52.9631 42.1143L77.3716 40.7715L83.7949 68.9715L63.2403 78.3715L47.8244 62.2572L52.9631 42.1143ZM43.9705 30.0286L85.0795 28.6858L96.6415 77.0286L59.3864 93.1429L33.6932 64.9429L43.9705 30.0286ZM34.9778 17.9429H91.5028L109.488 85.0857L55.5324 107.914L19.5619 66.2858L34.9778 17.9429ZM27.2699 8.54294H97.9261L119.765 90.4572L52.9631 120L8 70.3143L27.2699 8.54294Z" stroke="#4F2BBA"/>
<path d="M55.0903 102.148C56.8984 102.148 58.4087 103.701 58.4087 105.673C58.4086 107.644 56.8984 109.197 55.0903 109.197C53.2825 109.197 51.7731 107.644 51.7729 105.673C51.7729 103.701 53.2824 102.149 55.0903 102.148ZM60.3032 88.7167C62.1112 88.7169 63.6206 90.2695 63.6206 92.2411C63.6205 94.2126 62.1111 95.7653 60.3032 95.7655C58.4952 95.7655 56.985 94.2127 56.9849 92.2411C56.9849 90.2694 58.4951 88.7167 60.3032 88.7167ZM108.545 80.6669C110.353 80.6669 111.864 82.2198 111.864 84.1913C111.864 86.163 110.353 87.7166 108.545 87.7167C106.737 87.7167 105.227 86.163 105.227 84.1913C105.227 82.2198 106.737 80.6669 108.545 80.6669ZM62.7271 72.618C64.5351 72.618 66.0453 74.1708 66.0454 76.1425C66.0454 78.1142 64.5352 79.6669 62.7271 79.6669C60.919 79.6668 59.4087 78.1141 59.4087 76.1425C59.4088 74.1709 60.919 72.6181 62.7271 72.618ZM95.8179 72.618C97.6259 72.618 99.1361 74.1708 99.1362 76.1425C99.1362 78.1142 97.626 79.6669 95.8179 79.6669C94.0099 79.6668 92.4995 78.1141 92.4995 76.1425C92.4996 74.1709 94.0099 72.6182 95.8179 72.618ZM83.0903 64.5692C84.8984 64.5692 86.4087 66.1219 86.4087 68.0936C86.4086 70.0653 84.8984 71.618 83.0903 71.618C81.2825 71.6178 79.773 70.0651 79.7729 68.0936C79.7729 66.1221 81.2824 64.5695 83.0903 64.5692ZM19.4546 64.5526C21.2626 64.5527 22.7729 66.1054 22.7729 68.077C22.7729 70.0487 21.2626 71.6013 19.4546 71.6014C17.6465 71.6014 16.1362 70.0487 16.1362 68.077C16.1363 66.1054 17.6465 64.5526 19.4546 64.5526ZM34.7271 61.869C36.5352 61.869 38.0454 63.4227 38.0454 65.3944C38.0452 67.3659 36.535 68.9188 34.7271 68.9188C32.9191 68.9188 31.4089 67.3659 31.4087 65.3944C31.4087 63.4227 32.919 61.8691 34.7271 61.869ZM47.4546 59.203C49.2626 59.2031 50.7729 60.7558 50.7729 62.7274C50.7729 64.699 49.2626 66.2517 47.4546 66.2518C45.6465 66.2518 44.1362 64.6991 44.1362 62.7274C44.1362 60.7557 45.6465 59.203 47.4546 59.203ZM52.5454 37.7382C54.3533 37.7382 55.8635 39.2911 55.8638 41.2626C55.8638 43.2342 54.3535 44.7879 52.5454 44.788C50.7373 44.788 49.2271 43.2343 49.2271 41.2626C49.2273 39.2911 50.7374 37.7382 52.5454 37.7382ZM78.1216 37.7382C79.9293 37.7384 81.4387 39.2913 81.439 41.2626C81.439 43.2341 79.9295 44.7877 78.1216 44.788C76.3135 44.788 74.8032 43.2343 74.8032 41.2626C74.8034 39.2911 76.3136 37.7382 78.1216 37.7382ZM44.9087 27.0067C46.7168 27.0067 48.2271 28.5594 48.2271 30.5311C48.2269 32.5027 46.7167 34.0555 44.9087 34.0555C43.1008 34.0554 41.5905 32.5026 41.5903 30.5311C41.5903 28.5595 43.1007 27.0069 44.9087 27.0067ZM83.0903 27.0067C84.8984 27.0067 86.4087 28.5594 86.4087 30.5311C86.4085 32.5027 84.8983 34.0555 83.0903 34.0555C81.2825 34.0553 79.7731 32.5025 79.7729 30.5311C79.7729 28.5596 81.2824 27.007 83.0903 27.0067ZM34.7271 16.2577C36.5351 16.2577 38.0453 17.8105 38.0454 19.7821C38.0454 21.7538 36.5352 23.3065 34.7271 23.3065C32.919 23.3065 31.4087 21.7538 31.4087 19.7821C31.4088 17.8105 32.919 16.2577 34.7271 16.2577ZM90.7271 16.2577C92.5351 16.2577 94.0453 17.8105 94.0454 19.7821C94.0454 21.7538 92.5352 23.3065 90.7271 23.3065C88.919 23.3065 87.4087 21.7538 87.4087 19.7821C87.4088 17.8105 88.919 16.2578 90.7271 16.2577Z" stroke="#4F2BBA"/>
</svg>
