<svg width="53" height="48" viewBox="0 0 53 48" fill="none" xmlns="http://www.w3.org/2000/svg">
<path d="M26.5002 16.0002L8.8335 32.0002V40.0002L17.6668 40.0002L35.3335 24.0002M26.5002 16.0002L32.8351 10.2629L32.8389 10.2595C33.7109 9.46976 34.1477 9.07418 34.6512 8.92601C35.0947 8.7955 35.5725 8.7955 36.0161 8.92601C36.5192 9.07407 36.9555 9.4692 37.8263 10.2578L41.6683 13.7374C42.5429 14.5295 42.9803 14.9257 43.1442 15.3823C43.2883 15.784 43.2882 16.2167 43.1441 16.6184C42.9804 17.0747 42.5436 17.4703 41.6703 18.2612L41.6684 18.2629L35.3335 24.0002M26.5002 16.0002L35.3335 24.0002" stroke="black" stroke-width="2" stroke-linecap="round" stroke-linejoin="round"/>
</svg>
