<svg width="47" height="40" viewBox="0 0 47 40" fill="none" xmlns="http://www.w3.org/2000/svg">
<path d="M23.5 27.125L31.9375 20M31.9375 20L23.5 12.875M31.9375 20H1M1 8.71405V8.60046C1 5.94021 1 4.6091 1.61309 3.59302C2.15238 2.69925 3.01227 1.97312 4.07068 1.51772C5.27393 1 6.85025 1 10.0005 1H37.0006C40.1508 1 41.7238 1 42.927 1.51772C43.9855 1.97312 44.8482 2.69925 45.3875 3.59302C46 4.6081 46 5.93761 46 8.59266V31.4085C46 34.0635 46 35.3911 45.3875 36.4062C44.8482 37.3 43.9855 38.0274 42.927 38.4828C41.725 39 40.1528 39 37.0087 39H9.99131C6.84717 39 5.27276 39 4.07068 38.4828C3.01227 38.0274 2.15238 37.2993 1.61309 36.4055C1 35.3894 1 34.0602 1 31.4V31.2812" stroke="black" stroke-width="2" stroke-linecap="round" stroke-linejoin="round"/>
</svg>
